<?xml version="1.0" standalone="no"?><svg xmlns="http://www.w3.org/2000/svg" viewBox="0 0 1440 320" >

<path fill="#000000" fill-opacity="1" d="M0,160L80,144C160,128,320,96,480,117.3C640,139,800,213,960,229.3C1120,245,1280,203,1360,181.3L1440,160L1440,320L1360,320C1280,320,1120,320,960,320C800,320,640,320,480,320C320,320,160,320,80,320L0,320Z"></path>

<!-- <path fill="#000000" fill-opacity="1" d="M0,160L80,144C160,128,320,96,480,117.3C640,139,800,213,960,229.3C1120,245,1280,203,1360,181.3L1440,160L1440,320" style=" stroke: white; stroke-width: 2px;"></path> -->

<path fill="none" d="M0,160 L80,144 C160,128,320,96,480,117.3 C640,139,800,213,960,229.3 C1120,245,1280,203,1360,181.3 L1440,160" style="stroke: white; stroke-width: 2px;"/>

</svg>